<mxfile host="Electron" modified="2024-09-02T13:15:41.519Z" agent="Mozilla/5.0 (Windows NT 10.0; Win64; x64) AppleWebKit/537.36 (KHTML, like Gecko) draw.io/22.0.3 Chrome/114.0.5735.289 Electron/25.8.4 Safari/537.36" etag="_NCrzZ-g3eZjJWt1v3ZM" version="22.0.3" type="device">
  <diagram name="Page-1" id="8CVPvKOG5eJQyPqVQ8sF">
    <mxGraphModel dx="802" dy="209" grid="1" gridSize="10" guides="1" tooltips="1" connect="1" arrows="1" fold="1" page="1" pageScale="1" pageWidth="600" pageHeight="160" math="0" shadow="0">
      <root>
        <mxCell id="0" />
        <mxCell id="1" parent="0" />
        <mxCell id="BwxQA0fLe51tiPNvm457-1" value="0x01" style="rounded=0;whiteSpace=wrap;html=1;" parent="1" vertex="1">
          <mxGeometry x="105" y="405" width="30" height="30" as="geometry" />
        </mxCell>
        <mxCell id="BwxQA0fLe51tiPNvm457-2" value="0x02" style="rounded=0;whiteSpace=wrap;html=1;" parent="1" vertex="1">
          <mxGeometry x="145" y="405" width="30" height="30" as="geometry" />
        </mxCell>
        <mxCell id="BwxQA0fLe51tiPNvm457-3" value="0x03" style="rounded=0;whiteSpace=wrap;html=1;" parent="1" vertex="1">
          <mxGeometry x="185" y="405" width="30" height="30" as="geometry" />
        </mxCell>
        <mxCell id="BwxQA0fLe51tiPNvm457-4" value="0x04" style="rounded=0;whiteSpace=wrap;html=1;" parent="1" vertex="1">
          <mxGeometry x="225" y="405" width="30" height="30" as="geometry" />
        </mxCell>
        <mxCell id="BwxQA0fLe51tiPNvm457-5" value="0x05" style="rounded=0;whiteSpace=wrap;html=1;" parent="1" vertex="1">
          <mxGeometry x="265" y="405" width="30" height="30" as="geometry" />
        </mxCell>
        <mxCell id="BwxQA0fLe51tiPNvm457-6" value="0x06" style="rounded=0;whiteSpace=wrap;html=1;" parent="1" vertex="1">
          <mxGeometry x="305" y="405" width="30" height="30" as="geometry" />
        </mxCell>
        <mxCell id="BwxQA0fLe51tiPNvm457-7" value="0x07" style="rounded=0;whiteSpace=wrap;html=1;" parent="1" vertex="1">
          <mxGeometry x="345" y="405" width="30" height="30" as="geometry" />
        </mxCell>
        <mxCell id="BwxQA0fLe51tiPNvm457-8" value="0x08" style="rounded=0;whiteSpace=wrap;html=1;" parent="1" vertex="1">
          <mxGeometry x="385" y="405" width="30" height="30" as="geometry" />
        </mxCell>
        <mxCell id="BwxQA0fLe51tiPNvm457-9" value="0x09" style="rounded=0;whiteSpace=wrap;html=1;" parent="1" vertex="1">
          <mxGeometry x="425" y="405" width="30" height="30" as="geometry" />
        </mxCell>
        <mxCell id="BwxQA0fLe51tiPNvm457-10" value="0x0a" style="rounded=0;whiteSpace=wrap;html=1;" parent="1" vertex="1">
          <mxGeometry x="465" y="405" width="30" height="30" as="geometry" />
        </mxCell>
        <mxCell id="BwxQA0fLe51tiPNvm457-11" value="" style="endArrow=none;html=1;rounded=0;" parent="1" edge="1">
          <mxGeometry width="50" height="50" relative="1" as="geometry">
            <mxPoint x="105" y="445" as="sourcePoint" />
            <mxPoint x="175" y="445" as="targetPoint" />
          </mxGeometry>
        </mxCell>
        <mxCell id="BwxQA0fLe51tiPNvm457-12" value="" style="endArrow=none;html=1;rounded=0;" parent="1" edge="1">
          <mxGeometry width="50" height="50" relative="1" as="geometry">
            <mxPoint x="185" y="445" as="sourcePoint" />
            <mxPoint x="255" y="445" as="targetPoint" />
          </mxGeometry>
        </mxCell>
        <mxCell id="BwxQA0fLe51tiPNvm457-13" value="" style="endArrow=none;html=1;rounded=0;" parent="1" edge="1">
          <mxGeometry width="50" height="50" relative="1" as="geometry">
            <mxPoint x="265" y="445" as="sourcePoint" />
            <mxPoint x="335" y="445" as="targetPoint" />
          </mxGeometry>
        </mxCell>
        <mxCell id="BwxQA0fLe51tiPNvm457-14" value="" style="endArrow=none;html=1;rounded=0;" parent="1" edge="1">
          <mxGeometry width="50" height="50" relative="1" as="geometry">
            <mxPoint x="345" y="445" as="sourcePoint" />
            <mxPoint x="415" y="445" as="targetPoint" />
          </mxGeometry>
        </mxCell>
        <mxCell id="BwxQA0fLe51tiPNvm457-15" value="" style="endArrow=none;html=1;rounded=0;" parent="1" edge="1">
          <mxGeometry width="50" height="50" relative="1" as="geometry">
            <mxPoint x="425" y="445" as="sourcePoint" />
            <mxPoint x="495" y="445" as="targetPoint" />
          </mxGeometry>
        </mxCell>
        <mxCell id="BwxQA0fLe51tiPNvm457-16" value="0" style="text;strokeColor=none;align=center;fillColor=none;html=1;verticalAlign=middle;whiteSpace=wrap;rounded=0;" parent="1" vertex="1">
          <mxGeometry x="115" y="445" width="50" height="20" as="geometry" />
        </mxCell>
        <mxCell id="BwxQA0fLe51tiPNvm457-17" value="1" style="text;strokeColor=none;align=center;fillColor=none;html=1;verticalAlign=middle;whiteSpace=wrap;rounded=0;" parent="1" vertex="1">
          <mxGeometry x="195" y="445" width="50" height="20" as="geometry" />
        </mxCell>
        <mxCell id="BwxQA0fLe51tiPNvm457-18" value="2" style="text;strokeColor=none;align=center;fillColor=none;html=1;verticalAlign=middle;whiteSpace=wrap;rounded=0;" parent="1" vertex="1">
          <mxGeometry x="275" y="445" width="50" height="20" as="geometry" />
        </mxCell>
        <mxCell id="BwxQA0fLe51tiPNvm457-19" value="3" style="text;strokeColor=none;align=center;fillColor=none;html=1;verticalAlign=middle;whiteSpace=wrap;rounded=0;" parent="1" vertex="1">
          <mxGeometry x="355" y="445" width="50" height="20" as="geometry" />
        </mxCell>
        <mxCell id="BwxQA0fLe51tiPNvm457-20" value="4" style="text;strokeColor=none;align=center;fillColor=none;html=1;verticalAlign=middle;whiteSpace=wrap;rounded=0;" parent="1" vertex="1">
          <mxGeometry x="435" y="445" width="50" height="20" as="geometry" />
        </mxCell>
        <mxCell id="BwxQA0fLe51tiPNvm457-23" value="0xffacb10" style="text;strokeColor=none;align=center;fillColor=none;html=1;verticalAlign=middle;whiteSpace=wrap;rounded=0;rotation=-90;fontFamily=Lucida Console;" parent="1" vertex="1">
          <mxGeometry x="90" y="350" width="60" height="30" as="geometry" />
        </mxCell>
        <mxCell id="BwxQA0fLe51tiPNvm457-24" value="0xffacb11" style="text;strokeColor=none;align=center;fillColor=none;html=1;verticalAlign=middle;whiteSpace=wrap;rounded=0;rotation=-90;fontFamily=Lucida Console;" parent="1" vertex="1">
          <mxGeometry x="130" y="350" width="60" height="30" as="geometry" />
        </mxCell>
        <mxCell id="BwxQA0fLe51tiPNvm457-25" value="0xffacb12" style="text;strokeColor=none;align=center;fillColor=none;html=1;verticalAlign=middle;whiteSpace=wrap;rounded=0;rotation=-90;fontFamily=Lucida Console;" parent="1" vertex="1">
          <mxGeometry x="170" y="350" width="60" height="30" as="geometry" />
        </mxCell>
        <mxCell id="BwxQA0fLe51tiPNvm457-26" value="0xffacb13" style="text;strokeColor=none;align=center;fillColor=none;html=1;verticalAlign=middle;whiteSpace=wrap;rounded=0;rotation=-90;fontFamily=Lucida Console;" parent="1" vertex="1">
          <mxGeometry x="210" y="350" width="60" height="30" as="geometry" />
        </mxCell>
        <mxCell id="BwxQA0fLe51tiPNvm457-27" value="0xffacb14" style="text;strokeColor=none;align=center;fillColor=none;html=1;verticalAlign=middle;whiteSpace=wrap;rounded=0;rotation=-90;fontFamily=Lucida Console;" parent="1" vertex="1">
          <mxGeometry x="250" y="350" width="60" height="30" as="geometry" />
        </mxCell>
        <mxCell id="BwxQA0fLe51tiPNvm457-28" value="0xffacb15" style="text;strokeColor=none;align=center;fillColor=none;html=1;verticalAlign=middle;whiteSpace=wrap;rounded=0;rotation=-90;fontFamily=Lucida Console;" parent="1" vertex="1">
          <mxGeometry x="290" y="350" width="60" height="30" as="geometry" />
        </mxCell>
        <mxCell id="BwxQA0fLe51tiPNvm457-29" value="0xffacb16" style="text;strokeColor=none;align=center;fillColor=none;html=1;verticalAlign=middle;whiteSpace=wrap;rounded=0;rotation=-90;fontFamily=Lucida Console;" parent="1" vertex="1">
          <mxGeometry x="330" y="350" width="60" height="30" as="geometry" />
        </mxCell>
        <mxCell id="BwxQA0fLe51tiPNvm457-30" value="0xffacb17" style="text;strokeColor=none;align=center;fillColor=none;html=1;verticalAlign=middle;whiteSpace=wrap;rounded=0;rotation=-90;fontFamily=Lucida Console;" parent="1" vertex="1">
          <mxGeometry x="370" y="350" width="60" height="30" as="geometry" />
        </mxCell>
        <mxCell id="BwxQA0fLe51tiPNvm457-31" value="0xffacb18" style="text;strokeColor=none;align=center;fillColor=none;html=1;verticalAlign=middle;whiteSpace=wrap;rounded=0;rotation=-90;fontFamily=Lucida Console;" parent="1" vertex="1">
          <mxGeometry x="410" y="350" width="60" height="30" as="geometry" />
        </mxCell>
        <mxCell id="BwxQA0fLe51tiPNvm457-32" value="0xffacb19" style="text;strokeColor=none;align=center;fillColor=none;html=1;verticalAlign=middle;whiteSpace=wrap;rounded=0;rotation=-90;fontFamily=Lucida Console;" parent="1" vertex="1">
          <mxGeometry x="450" y="350" width="60" height="30" as="geometry" />
        </mxCell>
      </root>
    </mxGraphModel>
  </diagram>
</mxfile>
